<svg xmlns="http://www.w3.org/2000/svg" viewBox="0 0 422.77 64.37"><defs><style>.cls-1{fill:#fff;}</style></defs><title>Asset 1</title><g id="Layer_2" data-name="Layer 2"><g id="Layer_1-2" data-name="Layer 1"><path class="cls-1" d="M43,0c0,.35-.11.71-.12,1.06V31.64c0,.35.05.7.08,1.19h6.46v8.84H45.82c-3,0-3,0-3,3,0,1.77,0,3.53,0,5.3a2,2,0,0,1-.11.42H32.17V41.69H.13c0-1.72,0-3.31,0-4.9,0-1.92-.42-4,.23-5.71S2.74,28.23,4,26.84L27.78.94c.27-.29.48-.63.72-.94ZM32.06,32.77V11.05l-20,21.72Z"/><path class="cls-1" d="M90.15,0V50.43c-.4,0-.75.08-1.09.08-5.5,0-11,0-16.49,0-3.29,0-6.59-.11-9.67-1.51-5.85-2.67-8.92-7.38-9.77-13.61a21.24,21.24,0,0,1,2-13.23A15,15,0,0,1,67.89,13.8c3.48-.24,7-.15,10.47-.2H80a5.28,5.28,0,0,0,.15-.85c0-4.06,0-8.11,0-12.16A3,3,0,0,0,80,0ZM80.06,21.39c-2.47,0-4.82,0-7.18,0a11.75,11.75,0,0,0-1.68.08c-4.17.61-6.88,3-7.72,7.13a18.65,18.65,0,0,0-.29,4.78c.27,5,2.94,8.47,7.48,9.09,3,.41,6.21.08,9.39.08Z"/><path class="cls-1" d="M222.83,0q0,24.42,0,48.85v1.6h-10V49q0-23.72,0-47.41c0-.52,0-1-.05-1.56Z"/><path class="cls-1" d="M284.18,50.52V64.37h-9.95V13.71a7.37,7.37,0,0,1,.93-.11c6.74.05,13.48.12,20.22.14,9.42,0,14.41,6.84,15.55,13.89.72,4.5.72,9-1.18,13.22-2.56,5.73-7,9-13.28,9.42-3.55.25-7.13.18-10.7.25Zm.09-7.89c2.89,0,5.67.17,8.41,0a8.19,8.19,0,0,0,7.85-6.47,15.29,15.29,0,0,0,.05-8.19c-.85-3.13-2.76-5.52-6-6s-6.81-.48-10.3-.69Z"/><path class="cls-1" d="M387.62,50.31V42.7h1.45q9.26,0,18.53,0c.84,0,1.69,0,2.53-.06a2.72,2.72,0,0,0,2.76-2.76c.12-2.06-.68-3.46-2.4-3.74a40.24,40.24,0,0,0-4.67-.31c-3.4-.13-6.84,0-10.19-.43a9.85,9.85,0,0,1-8.49-9,15.8,15.8,0,0,1,.1-4.66,9.35,9.35,0,0,1,9.23-7.94c2.4-.12,4.81-.15,7.22-.16,5.25,0,10.51,0,15.77,0,.47,0,.94,0,1.48.06v7.73h-1.38l-17.81,0c-.4,0-.81,0-1.21,0-2.24.2-3.15,1.08-3.18,3.1a3.29,3.29,0,0,0,3.17,3.65c1.8.15,3.61.16,5.41.23a58,58,0,0,1,8.15.4c8.81,1.65,9.89,9.12,7.71,14.94-1.56,4.16-4.56,6.52-9.12,6.54C404.38,50.33,396.08,50.31,387.62,50.31Z"/><path class="cls-1" d="M229,31.88c-.09-10,6.24-17.6,16.61-18.63a27.8,27.8,0,0,1,9.67.65,15.73,15.73,0,0,1,11.19,10,22.4,22.4,0,0,1,.75,14.63,17.09,17.09,0,0,1-14.85,12.25A26.45,26.45,0,0,1,240,49.7c-6.81-2.56-10.15-7.75-10.86-14.81C229.05,34,229,33.05,229,31.88Zm10.1.89.17,0c.14,1.15.22,2.31.42,3.45a8.45,8.45,0,0,0,7.94,7.11c5.05.3,8.2-1.71,9.45-6.11a19.14,19.14,0,0,0,.28-9.27c-.91-4.45-3.27-6.75-7.78-7.2s-8.25,1.26-9.57,6.08A48,48,0,0,0,239.07,32.77Z"/><path class="cls-1" d="M347.48,13.75v7.64h-1.34c-3.89,0-7.79,0-11.68,0-1.08,0-2.16.12-3.23.23a5,5,0,0,0-4.74,4.23c-.16.69-.26,1.4-.41,2.25h21.36v7.72H326.29a5.74,5.74,0,0,0,5.27,6.53c3.58.32,7.2.26,10.81.34,1.67,0,3.35,0,5.09,0v7.64c-.09.06-.15.14-.22.14-6.17-.13-12.37.12-18.5-.49-7-.69-12.53-6.88-13.41-14-.54-4.35-.51-8.64,1.29-12.75,2.53-5.77,6.88-9.15,13.22-9.45,5.72-.27,11.47-.16,17.2-.21A2.33,2.33,0,0,1,347.48,13.75Z"/><path class="cls-1" d="M107.57,35.86c-.06,3.26,1.53,5.6,4.41,6.28a24.3,24.3,0,0,0,5.11.54c3.45.08,6.9,0,10.35,0h1.38v7.7a1.85,1.85,0,0,1-.45.11c-5.49-.06-11,0-16.48-.23A16.19,16.19,0,0,1,96.7,36.05c-.56-4.35-.52-8.64,1.28-12.75,2.52-5.77,6.87-9.16,13.2-9.47,5.72-.27,11.47-.16,17.2-.21a1.92,1.92,0,0,1,.43.12v7.65h-1.3c-3.89,0-7.78,0-11.67,0a28.88,28.88,0,0,0-3.35.25,4.94,4.94,0,0,0-4.57,4c-.19.77-.32,1.55-.51,2.49h21.38v7.76Z"/><path class="cls-1" d="M205.78,21.39h-1.45c-4,0-8,0-11.92,0a21.22,21.22,0,0,0-2.87.23c-3.39.49-5,2.55-5,6.54h1.37c6.22,0,12.44,0,18.66,0,1,0,1.33.27,1.3,1.28-.07,2.08,0,4.16,0,6.41H184.59a5.75,5.75,0,0,0,5.22,6.54,50.28,50.28,0,0,0,5.76.31c3.25.05,6.5,0,9.75,0a1.84,1.84,0,0,1,.35.1v7.55c-6.56.11-13.15.81-19.57-.52-6.75-1.41-10.76-6-12.24-12.63-1.28-5.77-.82-11.4,2.43-16.57a14.16,14.16,0,0,1,12.14-6.86c5.46-.21,10.92-.16,16.37-.17.33,0,.93.36.94.57C205.8,16.55,205.78,18.9,205.78,21.39Z"/><path class="cls-1" d="M132.05,13.69c.47,0,.86-.09,1.24-.09,2.77,0,5.54.05,8.31,0a1.53,1.53,0,0,1,1.72,1.21q4.2,11.45,8.47,22.87c.15.41.34.8.6,1.42.28-.62.47-1,.65-1.46,3.1-7.65,6.22-15.29,9.29-22.95a1.43,1.43,0,0,1,1.58-1.08c2.72.05,5.45,0,8.18,0,.35,0,.69.06,1.16.1-.15.44-.24.78-.38,1.09Q165.4,32.13,158,49.46a1.51,1.51,0,0,1-1.68,1.08c-2.89-.06-5.78,0-8.67,0a1.12,1.12,0,0,1-1.27-.77q-7-17.7-14.1-35.39A6.86,6.86,0,0,1,132.05,13.69Z"/><path class="cls-1" d="M384.09,30.14c-3.3,0-6.22,0-9.15,0-.22,0-.59-.54-.63-.86-.14-1-.11-2.08-.22-3.12-.29-2.86-1.39-4.05-4.23-4.52a27.3,27.3,0,0,0-2.87-.21c-.75,0-1.5,0-2.37,0v29h-10V13.68c.39,0,.75-.08,1.1-.08,5.81.05,11.63,0,17.44.21A17.16,17.16,0,0,1,378.54,15a7.24,7.24,0,0,1,4.79,5.88C383.78,23.84,383.84,26.89,384.09,30.14Z"/></g></g></svg>