<?xml version="1.0" encoding="utf-8"?>
<!-- Generator: Adobe Illustrator 22.1.0, SVG Export Plug-In . SVG Version: 6.00 Build 0)  -->
<svg version="1.1" id="Layer_1" xmlns="http://www.w3.org/2000/svg" xmlns:xlink="http://www.w3.org/1999/xlink" x="0px" y="0px"
	 viewBox="0 0 448.6 86" style="enable-background:new 0 0 448.6 86;" xml:space="preserve">
<style type="text/css">
	.st0{fill:#010202;}
</style>
<g>
	<path class="st0" d="M55.8,10.8c0,0.4-0.1,0.7-0.1,1.1c0,10.2,0,20.4,0,30.6c0,0.4,0,0.7,0.1,1.2c2.2,0,4.3,0,6.5,0
		c0,3,0,5.8,0,8.8c-1.2,0-2.4,0-3.6,0c-3,0-3,0-3,3c0,1.8,0,3.5,0,5.3c0,0.1-0.1,0.2-0.1,0.4c-3.5,0-6.9,0-10.5,0c0-2.9,0-5.7,0-8.7
		c-10.7,0-21.3,0-32,0c0-1.7,0-3.3,0-4.9c0-1.9-0.4-4,0.2-5.7c0.6-1.6,2.4-2.9,3.7-4.2c7.9-8.6,15.8-17.3,23.8-25.9
		c0.3-0.3,0.5-0.6,0.7-0.9C46.2,10.8,51,10.8,55.8,10.8z M45,43.6c0-7.2,0-14.3,0-21.7c-6.7,7.3-13.3,14.4-20,21.7
		C31.8,43.6,38.4,43.6,45,43.6z"/>
	<path class="st0" d="M103,10.8c0,16.8,0,33.5,0,50.4c-0.4,0-0.7,0.1-1.1,0.1c-5.5,0-11,0-16.5,0c-3.3,0-6.6-0.1-9.7-1.5
		c-5.9-2.7-8.9-7.4-9.8-13.6c-0.6-4.6-0.2-9.1,2-13.2c2.7-5.1,7-8,12.8-8.4c3.5-0.2,7-0.1,10.5-0.2c0.5,0,1,0,1.6,0
		c0.1-0.3,0.1-0.6,0.1-0.9c0-4.1,0-8.1,0-12.2c0-0.2-0.1-0.4-0.1-0.6C96.3,10.8,99.7,10.8,103,10.8z M93,32.2c-2.5,0-4.8,0-7.2,0
		c-0.6,0-1.1,0-1.7,0.1c-4.2,0.6-6.9,3-7.7,7.1c-0.3,1.5-0.4,3.2-0.3,4.8c0.3,5,2.9,8.5,7.5,9.1c3.1,0.4,6.2,0.1,9.4,0.1
		C93,46.4,93,39.4,93,32.2z"/>
	<path class="st0" d="M235.7,10.8c0,16.3,0,32.6,0,48.9c0,0.5,0,1,0,1.6c-3.4,0-6.6,0-10,0c0-0.5,0-1,0-1.5c0-15.8,0-31.6,0-47.4
		c0-0.5,0-1-0.1-1.6C229,10.8,232.4,10.8,235.7,10.8z"/>
	<path class="st0" d="M297.1,61.3c0,4.7,0,9.3,0,13.9c-3.4,0-6.6,0-10,0c0-16.9,0-33.7,0-50.7c0.3,0,0.6-0.1,0.9-0.1
		c6.7,0,13.5,0.1,20.2,0.1c9.4,0,14.4,6.8,15.5,13.9c0.7,4.5,0.7,9-1.2,13.2c-2.6,5.7-7,9-13.3,9.4c-3.6,0.3-7.1,0.2-10.7,0.2
		C298.2,61.3,297.7,61.3,297.1,61.3z M297.2,53.4c2.9,0,5.7,0.2,8.4,0c4.1-0.3,6.8-2.6,7.8-6.5c0.8-2.7,0.8-5.5,0.1-8.2
		c-0.9-3.1-2.8-5.5-6-6c-3.4-0.5-6.8-0.5-10.3-0.7C297.2,39.4,297.2,46.4,297.2,53.4z"/>
	<path class="st0" d="M400.5,61.1c0-2.4,0-4.9,0-7.6c0.5,0,1,0,1.4,0c6.2,0,12.4,0,18.5,0c0.8,0,1.7,0,2.5-0.1
		c1.7-0.2,2.7-1.1,2.8-2.8c0.1-2.1-0.7-3.5-2.4-3.7c-1.5-0.3-3.1-0.2-4.7-0.3c-3.4-0.1-6.8,0-10.2-0.4c-4.7-0.7-7.9-4.3-8.5-9
		c-0.2-1.5-0.2-3.2,0.1-4.7c0.9-4.8,4.3-7.7,9.2-7.9c2.4-0.1,4.8-0.2,7.2-0.2c5.3,0,10.5,0,15.8,0c0.5,0,0.9,0,1.5,0.1
		c0,2.6,0,5,0,7.7c-0.5,0-0.9,0-1.4,0c-5.9,0-11.9,0-17.8,0c-0.4,0-0.8,0-1.2,0c-2.2,0.2-3.2,1.1-3.2,3.1c0,2.1,1.1,3.5,3.2,3.7
		c1.8,0.1,3.6,0.2,5.4,0.2c2.7,0.1,5.5-0.1,8.1,0.4c8.8,1.6,9.9,9.1,7.7,14.9c-1.6,4.2-4.6,6.5-9.1,6.5
		C417.3,61.1,409,61.1,400.5,61.1z"/>
	<path class="st0" d="M241.9,42.7c-0.1-10,6.2-17.6,16.6-18.6c3.3-0.3,6.5-0.2,9.7,0.6c5.5,1.4,9.1,4.8,11.2,10
		c1.9,4.8,2.1,9.7,0.8,14.6c-1.9,6.8-7.8,11.5-14.9,12.3c-4.2,0.4-8.3,0.4-12.3-1.1c-6.8-2.6-10.1-7.7-10.9-14.8
		C241.9,44.8,241.9,43.9,241.9,42.7z M252,43.6c0.1,0,0.1,0,0.2,0c0.1,1.2,0.2,2.3,0.4,3.5c0.7,4,3.9,6.9,7.9,7.1
		c5.1,0.3,8.2-1.7,9.5-6.1c0.9-3.1,0.9-6.2,0.3-9.3c-0.9-4.4-3.3-6.8-7.8-7.2c-4.5-0.5-8.3,1.3-9.6,6.1
		C252.3,39.6,252.3,41.6,252,43.6z"/>
	<path class="st0" d="M360.4,24.6c0,2.5,0,5,0,7.6c-0.5,0-0.9,0-1.3,0c-3.9,0-7.8,0-11.7,0c-1.1,0-2.2,0.1-3.2,0.2
		c-2.6,0.3-4.2,1.7-4.7,4.2c-0.2,0.7-0.3,1.4-0.4,2.3c7.2,0,14.2,0,21.4,0c0,2.6,0,5.1,0,7.7c-7,0-14.1,0-21.1,0
		c-0.5,3.2,1.8,6.2,5.3,6.5c3.6,0.3,7.2,0.3,10.8,0.3c1.7,0,3.4,0,5.1,0c0,2.6,0,5.1,0,7.6c-0.1,0.1-0.2,0.1-0.2,0.1
		c-6.2-0.1-12.4,0.1-18.5-0.5c-7-0.7-12.5-6.9-13.4-14c-0.5-4.4-0.5-8.6,1.3-12.8c2.5-5.8,6.9-9.2,13.2-9.5
		c5.7-0.3,11.5-0.2,17.2-0.2C360,24.4,360.2,24.5,360.4,24.6z"/>
	<path class="st0" d="M120.5,46.7c-0.1,3.3,1.5,5.6,4.4,6.3c1.7,0.4,3.4,0.5,5.1,0.5c3.4,0.1,6.9,0,10.3,0c0.4,0,0.9,0,1.4,0
		c0,2.6,0,5.1,0,7.7c-0.2,0-0.3,0.1-0.4,0.1c-5.5-0.1-11,0-16.5-0.2c-7.8-0.3-14.2-6.4-15.2-14.2c-0.6-4.4-0.5-8.6,1.3-12.7
		c2.5-5.8,6.9-9.2,13.2-9.5c5.7-0.3,11.5-0.2,17.2-0.2c0.1,0,0.2,0.1,0.4,0.1c0,2.5,0,5,0,7.6c-0.4,0-0.9,0-1.3,0
		c-3.9,0-7.8,0-11.7,0c-1.1,0-2.2,0.1-3.3,0.2c-2.4,0.3-4,1.6-4.6,4c-0.2,0.8-0.3,1.5-0.5,2.5c7.2,0,14.2,0,21.4,0
		c0,2.6,0,5.1,0,7.8C134.6,46.7,127.6,46.7,120.5,46.7z"/>
	<path class="st0" d="M218.7,32.2c-0.6,0-1,0-1.5,0c-4,0-7.9,0-11.9,0c-1,0-1.9,0.1-2.9,0.2c-3.4,0.5-5,2.5-5,6.5c0.5,0,0.9,0,1.4,0
		c6.2,0,12.4,0,18.7,0c1,0,1.3,0.3,1.3,1.3c-0.1,2.1,0,4.2,0,6.4c-7.2,0-14.2,0-21.2,0c-0.5,3.3,1.8,6.1,5.2,6.5
		c1.9,0.3,3.8,0.3,5.8,0.3c3.2,0.1,6.5,0,9.8,0c0.1,0,0.1,0,0.4,0.1c0,2.5,0,5,0,7.5c-6.6,0.1-13.1,0.8-19.6-0.5
		c-6.7-1.4-10.8-6-12.2-12.6c-1.3-5.8-0.8-11.4,2.4-16.6c2.8-4.5,7-6.7,12.1-6.9c5.5-0.2,10.9-0.2,16.4-0.2c0.3,0,0.9,0.4,0.9,0.6
		C218.7,27.4,218.7,29.7,218.7,32.2z"/>
	<path class="st0" d="M144.9,24.5c0.5,0,0.9-0.1,1.2-0.1c2.8,0,5.5,0,8.3,0c1,0,1.4,0.3,1.7,1.2c2.8,7.6,5.6,15.3,8.5,22.9
		c0.2,0.4,0.3,0.8,0.6,1.4c0.3-0.6,0.5-1,0.6-1.5c3.1-7.6,6.2-15.3,9.3-22.9c0.3-0.8,0.7-1.1,1.6-1.1c2.7,0.1,5.5,0,8.2,0
		c0.3,0,0.7,0.1,1.2,0.1c-0.2,0.4-0.2,0.8-0.4,1.1c-5,11.6-10,23.1-14.9,34.7c-0.4,0.8-0.8,1.1-1.7,1.1c-2.9-0.1-5.8,0-8.7,0
		c-0.6,0-1-0.1-1.3-0.8c-4.7-11.8-9.4-23.6-14.1-35.4C145.1,25,145,24.8,144.9,24.5z"/>
	<path class="st0" d="M397,41c-3.3,0-6.2,0-9.1,0c-0.2,0-0.6-0.5-0.6-0.9c-0.1-1-0.1-2.1-0.2-3.1c-0.3-2.9-1.4-4.1-4.2-4.5
		c-0.9-0.2-1.9-0.2-2.9-0.2c-0.8,0-1.5,0-2.4,0c0,9.7,0,19.4,0,29c-3.4,0-6.6,0-10,0c0-12.2,0-24.5,0-36.8c0.4,0,0.7-0.1,1.1-0.1
		c5.8,0,11.6,0,17.4,0.2c1.8,0.1,3.7,0.5,5.4,1.2c2.7,1,4.4,3.1,4.8,5.9C396.7,34.7,396.7,37.7,397,41z"/>
</g>
</svg>
